<?xml version="1.0" encoding="UTF-8"?>
<svg id="Layer_1" xmlns="http://www.w3.org/2000/svg" version="1.1" viewBox="0 0 5000 5000">
  <!-- Generator: Adobe Illustrator 29.0.1, SVG Export Plug-In . SVG Version: 2.1.0 Build 192)  -->
  <defs>
    <style>
      .st0 {
        fill: #ff3b00;
      }

      .st1 {
        fill: none;
        stroke: #000;
        stroke-miterlimit: 10;
        stroke-width: 12.8px;
      }
    </style>
  </defs>
  <circle class="st0" cx="2716.5" cy="2258.6" r="833.7"/>
  <path class="st0" d="M2706.6,197c-1150.2,0-2082.7,932.5-2082.7,2082.9l549.2-.2c.2-847.1,686.6-1533.5,1533.5-1533.5s1533.7,686.6,1533.7,1533.7-686.4,1533.2-1533.5,1533.5v549.2c1150.5-.2,2082.7-932.5,2082.7-2082.7S3857,197,2706.6,197Z"/>
  <path class="st0" d="M2246.2,4275.8v554.5s-82.8,0-82.8,0c-1223.1,0-1952.3-1111.3-1952.3-2089.5l516-.2-11.9-.4c0,774.5,639.7,1535.6,1414.2,1535.6h116.8Z"/>
  <path class="st1" d="M2706.8,3813.4"/>
  <path class="st1" d="M2241.1,4147.3"/>
</svg>