<svg width="24" height="24" viewBox="0 0 24 24" fill="none" xmlns="http://www.w3.org/2000/svg">
<g clip-path="url(#clip0_127_604)">
<path d="M19.877 0H4.12305C1.84595 0 0 1.84595 0 4.12305V19.877C0 22.1541 1.84595 24 4.12305 24H19.877C22.1541 24 24 22.1541 24 19.877V4.12305C24 1.84595 22.1541 0 19.877 0Z" fill="#F27321"/>
<path d="M7.20917 7.1623V8.39226H9.19551V9.46426H7.20917V10.769H9.44481V11.9076H5.78809V6.03125H9.44481V7.1623H7.20917Z" fill="white"/>
<path d="M12.7768 7.45326C13.0276 7.60946 13.2247 7.83855 13.3417 8.10985V7.26911H14.7547V11.9062H13.3417V11.0669C13.2248 11.3383 13.0277 11.5674 12.7768 11.7235C12.522 11.8841 12.2173 11.9644 11.8628 11.9644C11.4801 11.9644 11.1379 11.8689 10.8362 11.6778C10.5344 11.4868 10.2962 11.2111 10.1217 10.8508C9.94712 10.4906 9.85986 10.0696 9.85986 9.58766C9.85986 9.1001 9.94712 8.67759 10.1217 8.32018C10.2962 7.96274 10.5344 7.68851 10.8362 7.49747C11.1381 7.30626 11.4803 7.21074 11.8628 7.21094C12.2171 7.21094 12.5218 7.29171 12.7768 7.45326ZM11.5841 8.75799C11.3985 8.95755 11.3057 9.23459 11.3057 9.58911C11.3057 9.94363 11.3985 10.2207 11.5841 10.4202C11.7697 10.6194 12.0149 10.7191 12.3198 10.7193C12.6188 10.7193 12.864 10.6168 13.0552 10.4118C13.2464 10.2068 13.3419 9.93258 13.3417 9.58911C13.3417 9.24002 13.2462 8.96434 13.0552 8.76206C12.8642 8.55978 12.619 8.45874 12.3198 8.45894C12.0149 8.45797 11.7697 8.55717 11.5841 8.75654V8.75799Z" fill="white"/>
<path d="M18.2121 10.687V11.9088H17.5721C17.029 11.9088 16.6065 11.7745 16.3046 11.5059C16.0026 11.2373 15.8518 10.7927 15.8519 10.1721V8.46794H15.2285V7.27142H15.8519V6.13281H17.273V7.27142H18.2039V8.46794H17.273V10.1965C17.273 10.3794 17.3103 10.5068 17.385 10.5788C17.4596 10.6507 17.5856 10.6868 17.7632 10.687H18.2121Z" fill="white"/>
<path d="M12.7103 12.8906V18.9837H11.2267V15.1729L9.90741 18.9837H8.6216L7.29417 15.1647V18.9837H5.81055V12.8906H7.62465L9.28283 17.135L10.9058 12.8906H12.7103Z" fill="white"/>
<path d="M18.1342 16.8337H14.7763C14.7933 17.1981 14.8858 17.46 15.0538 17.6192C15.2217 17.7785 15.4359 17.858 15.6961 17.8577C15.9161 17.8577 16.0984 17.8029 16.243 17.693C16.3841 17.5881 16.4853 17.4381 16.5295 17.2678H18.1005C18.0397 17.6028 17.8964 17.9173 17.6839 18.1833C17.466 18.4556 17.1869 18.6728 16.8694 18.8171C16.5396 18.9703 16.1722 19.047 15.7671 19.047C15.2925 19.047 14.8716 18.9472 14.5043 18.7477C14.1385 18.5499 13.8383 18.2497 13.6406 17.884C13.4323 17.5077 13.3281 17.068 13.3281 16.5647C13.3281 16.0556 13.4308 15.6144 13.6362 15.2409C13.8328 14.8761 14.1325 14.5773 14.4979 14.3817C14.8679 14.1821 15.2903 14.0822 15.7651 14.082C16.2453 14.082 16.6676 14.1804 17.0323 14.3773C17.3885 14.5659 17.6826 14.8538 17.8785 15.2061C18.0785 15.5622 18.1783 15.9715 18.1778 16.4343C18.1766 16.5686 18.162 16.7024 18.1342 16.8337ZM16.4202 15.4927C16.2441 15.3329 16.026 15.2529 15.7656 15.2529C15.4942 15.2529 15.2685 15.3341 15.0887 15.4962C14.9089 15.6583 14.8076 15.8954 14.7847 16.2077H16.6756C16.6823 15.8905 16.5974 15.6521 16.4211 15.4927H16.4202Z" fill="white"/>
</g>
<defs>
<clipPath id="clip0_127_604">
<rect width="24" height="24" fill="white"/>
</clipPath>
</defs>
</svg>
