<svg width="4720" height="1266" viewBox="0 0 4720 1266" fill="none" xmlns="http://www.w3.org/2000/svg">
<path d="M476.1 948.5V853.8C469.5 864.5 460.7 875.8 449.6 887.6C438.5 899.5 425 911 409 922C393 933.1 374.7 942.3 354.3 949.7C333.8 957.1 311.2 960.8 286.6 960.8C245.6 960.8 207.6 952.4 172.8 935.6C137.9 918.8 107.6 895.6 81.8 866.1C56 836.6 35.9 801.3 21.5 760.3C7.1 719.3 0 674.6 0 626.2C0 577.8 6.79999 534.4 20.3 490.9C33.8 447.4 52.7 409.1 76.9 375.9C101.1 342.7 130.2 316.2 164.3 296.5C198.3 276.8 237.1 267 280.6 267C324.1 267 324.7 269.9 344 275.6C363.3 281.3 381.1 289.1 397.5 299C413.9 308.8 428.4 320.1 441.2 332.8C453.9 345.5 464.4 359.2 472.6 374V0H655.9V948.5H476.1ZM185.8 616.4C185.8 641 189.1 664.8 195.6 687.8C202.2 710.8 211.6 730.7 223.9 747.5C236.2 764.3 251.2 777.6 268.8 787.5C286.4 797.3 306.3 802.3 328.5 802.3C350.7 802.3 370.5 797.4 388.2 787.5C405.8 777.7 421.2 764.1 434.3 746.9C447.4 729.7 457.3 709.8 463.8 687.2C470.4 664.7 473.6 640.7 473.6 615.2C473.6 589.7 470.3 565.8 463.8 543.2C457.2 520.7 447.8 500.8 435.5 483.5C423.2 466.3 408 452.7 390 442.9C371.9 433.1 351.4 428.1 328.5 428.1C305.6 428.1 286.5 433 268.8 442.9C251.2 452.7 236.2 466.3 223.9 483.5C211.6 500.7 202.2 520.8 195.6 543.8C189 566.8 185.8 591 185.8 616.4Z" fill="#FF4400"/>
<path d="M806.1 89.1992C806.1 41.9992 844.4 3.69922 891.6 3.69922H906.4C953.6 3.69922 991.9 41.9992 991.9 89.1992C991.9 136.399 953.6 174.699 906.4 174.699H891.6C844.4 174.699 806.1 136.399 806.1 89.1992ZM806.1 948.499V279.199H990.6V948.499H806.1Z" fill="#FF4400"/>
<path d="M1111.1 948.5V279.2H1295.6V369C1311.2 344.4 1327.6 325.3 1344.8 311.8C1362 298.3 1378.8 288 1395.2 281C1411.6 274 1426.1 269.7 1438.9 268.1C1451.6 266.5 1460.4 265.6 1465.4 265.6C1526.9 265.6 1575.1 276.1 1610 297C1644.9 317.9 1671.1 344.2 1688.7 375.7C1706.3 407.3 1717.2 441.3 1721.3 477.8C1725.4 514.3 1727.5 548.1 1727.5 579.3V948.4H1544.2V584.2C1544.2 559.6 1542.1 538.1 1538 519.6C1533.9 501.1 1527.5 485.6 1518.9 472.8C1510.3 460.1 1498.8 450.3 1484.5 443.3C1470.1 436.3 1453.1 432.8 1433.4 432.8C1413.7 432.8 1387.9 438.1 1370.7 448.8C1353.5 459.5 1339.3 472.6 1328.3 488.2C1317.2 503.8 1309 521 1303.7 539.9C1298.4 558.8 1295.7 576.8 1295.7 594V948.3H1111.2V948.5H1111.1Z" fill="#FF4400"/>
<path d="M2257.1 794.801C2281.3 779.201 2298.3 753.001 2308.2 716.101H2481.7C2475.1 762.001 2462 800.401 2442.3 831.101C2422.6 861.901 2398.6 887.101 2370.3 906.801C2342 926.501 2309.8 940.401 2273.7 948.601C2237.6 956.801 2199.5 961.701 2159.3 963.401C2108.4 964.201 2062.1 955.801 2020.3 938.201C1978.5 920.601 1942.8 896.401 1913.3 865.601C1883.8 834.801 1860.8 797.701 1844.4 754.301C1828 710.801 1819.8 664.101 1819.8 614.001C1819.8 563.901 1826.4 530.601 1839.5 489.101C1852.6 447.701 1872.7 410.601 1899.8 377.801C1926.9 345.001 1961.3 318.101 2003.1 297.201C2044.9 276.301 2094.9 265.801 2153.2 265.801C2211.5 265.801 2261.7 275.201 2303.9 294.101C2346.1 313.001 2380.8 339.201 2407.9 372.801C2435 406.401 2454.8 446.801 2467.6 494.001C2480.3 541.201 2487.1 592.601 2487.9 648.401H2001.9C2003.5 672.201 2008.9 694.301 2017.9 714.801C2026.9 735.301 2039 753.201 2054.2 768.301C2069.4 783.501 2086.8 795.401 2106.5 804.001C2126.2 812.601 2147.1 816.901 2169.2 816.901C2203.6 817.701 2233 810.301 2257.2 794.801H2257.1ZM2298.3 536.401C2294.2 518.401 2288.2 501.801 2280.5 486.601C2272.7 471.401 2262.7 458.501 2250.4 447.801C2238.1 437.201 2224 428.901 2208 423.201C2192 417.501 2173.7 414.601 2153.3 414.601C2132.9 414.601 2118.2 417.501 2102.2 423.201C2086.2 428.901 2072.1 437.301 2059.8 448.401C2047.5 459.501 2037.2 472.401 2029 487.201C2020.8 502.001 2015 518.401 2011.8 536.401H2298.5H2298.3Z" fill="#FF4400"/>
<path d="M3756 947.299C3711.7 949.799 3677.9 940.699 3654.5 920.199C3631.1 899.699 3619.4 875.099 3619.4 846.399V827.899C3607.9 848.399 3595.8 866.899 3583.1 883.299C3570.4 899.699 3556 913.899 3540 925.699C3524 937.599 3506 946.399 3485.9 952.199C3465.8 957.899 3442.6 960.799 3416.4 960.799C3385.2 961.599 3355.5 957.899 3327.2 949.699C3298.9 941.499 3274.1 929.399 3252.8 913.399C3231.5 897.399 3214.2 877.299 3201.1 853.099C3188 828.899 3181.4 800.799 3181.4 768.799C3181.4 736.799 3189.2 697.299 3204.8 669.799C3220.4 642.299 3241.9 619.599 3269.4 601.499C3296.9 583.499 3329.3 570.099 3366.6 561.499C3403.9 552.899 3443.9 548.599 3486.6 548.599H3567.8C3585.8 548.599 3598.6 544.699 3605.9 536.899C3613.3 529.099 3616.1 517.399 3614.5 501.799C3613.7 486.199 3610 473.099 3603.4 462.399C3596.8 451.799 3588.8 442.899 3579.4 435.899C3570 428.899 3558.9 423.999 3546.2 421.099C3533.5 418.199 3520.2 416.799 3506.2 416.799C3492.2 416.799 3470.1 418.499 3454.5 421.699C3438.9 424.999 3425.4 430.499 3413.9 438.299C3402.4 446.099 3393.4 456.599 3386.8 469.699C3380.2 482.799 3377 499.699 3377 520.099H3210.9C3210.1 473.399 3218.5 433.799 3236.1 401.399C3253.7 368.999 3276.7 342.799 3305 322.699C3333.3 302.599 3365.7 288.299 3402.2 279.599C3438.7 270.999 3475.8 266.699 3513.5 266.699C3551.2 266.699 3585.3 270.999 3618.1 279.599C3650.9 288.199 3679.6 301.699 3704.2 320.199C3728.8 338.699 3748.5 362.499 3763.3 391.599C3778.1 420.699 3785.4 456.199 3785.4 497.999V766.199C3785.4 777.699 3787 786.499 3790.3 792.699C3793.6 798.899 3798.1 802.799 3803.8 804.399C3809.5 806.099 3816.3 806.499 3824.1 805.599C3831.9 804.799 3839.5 803.099 3846.9 800.699L3844.4 943.399L3755.8 947.099L3756 947.299ZM3614.6 702.499V670.499H3487.9C3467.4 670.499 3449.8 672.199 3435 675.399C3420.2 678.699 3408.1 683.799 3398.7 690.799C3389.3 697.799 3382.3 706.199 3377.8 715.999C3373.3 725.799 3371 737.299 3371 750.399C3371.8 761.899 3375.1 771.699 3380.8 779.899C3386.5 788.099 3394.3 794.499 3404.2 798.999C3414 803.499 3425.5 806.799 3438.6 808.799C3451.7 810.899 3465.7 811.899 3480.4 811.899C3503.4 811.899 3523.2 808.599 3540.1 802.099C3556.9 795.499 3570.9 787.099 3581.9 776.899C3593 766.699 3601.2 755.199 3606.5 742.499C3611.8 729.799 3614.5 716.499 3614.5 702.499H3614.6Z" fill="#FF4400"/>
<path d="M3900.6 1266V279.3H4083.9V374C4092.1 360.1 4102.5 346.5 4115.3 333.4C4128 320.3 4142.6 308.8 4159 299C4175.4 289.2 4193.4 281.4 4213.1 275.6C4232.8 269.9 4253.7 267 4275.8 267C4318.4 267 4357 277.1 4391.4 297.1C4425.8 317.2 4455.2 343.8 4479.4 377.1C4503.6 410.3 4522.5 448.5 4536 491.5C4549.5 534.6 4556.3 579.5 4556.3 626.2C4556.3 672.9 4549.1 719.3 4534.8 760.3C4520.4 801.3 4500.4 836.6 4474.5 866.1C4448.7 895.6 4418.3 918.6 4383.5 935C4348.6 951.4 4310.7 959.6 4269.7 959.6C4228.7 959.6 4222.5 956.3 4202 949.8C4181.5 943.2 4163.2 934.4 4147.3 923.3C4131.3 912.2 4117.8 900.8 4106.7 888.9C4095.6 877 4086.8 866.1 4080.2 856.3V1266H3900.6ZM4360.7 543.8C4354.1 520.8 4344.7 500.7 4332.4 483.5C4320.1 466.3 4305.1 452.6 4287.5 442.3C4269.9 432.1 4249.6 426.9 4226.6 426.9C4203.6 426.9 4184.3 432 4166.3 442.3C4148.2 452.6 4133.1 466.3 4120.8 483.5C4108.5 500.7 4099.1 520.8 4092.5 543.8C4085.9 566.8 4082.7 590.6 4082.7 615.2C4082.7 639.8 4086 664.8 4092.5 687.8C4099.1 710.8 4108.7 730.7 4121.4 747.5C4134.1 764.3 4149.5 777.6 4167.5 787.5C4185.5 797.3 4205.6 802.3 4227.8 802.3C4250 802.3 4269.8 797.4 4287.5 787.5C4305.1 777.7 4320.1 764.3 4332.4 747.5C4344.7 730.7 4354.1 710.8 4360.7 687.8C4367.3 664.8 4370.5 641 4370.5 616.4C4370.5 591.8 4367.2 566.8 4360.7 543.8Z" fill="#FF4400"/>
<path d="M4656.4 963.3C4691.53 963.3 4720 935.587 4720 901.4C4720 867.214 4691.53 839.5 4656.4 839.5C4621.28 839.5 4592.8 867.214 4592.8 901.4C4592.8 935.587 4621.28 963.3 4656.4 963.3Z" fill="#FF4400"/>
<path d="M2820.4 723.401C2820.4 745.401 2827.4 763.201 2841.5 776.801C2855.5 790.401 2874 797.201 2896.9 797.201C2919.8 797.201 2935.3 790.601 2949 777.401C2962.6 764.201 2969.4 748.001 2969.4 728.601V675.901H3138.1V756.301C3138.1 786.201 3132.8 814.101 3122.3 840.001C3111.8 865.901 3097 888.101 3078.1 906.601C3059.2 925.101 3037 939.801 3011.5 950.801C2986 961.801 2957.9 967.301 2927.1 967.301H2878.3C2837 967.301 2800.5 962.501 2768.9 952.801C2737.3 943.101 2710.5 928.001 2688.5 907.301C2666.5 886.701 2650 859.601 2639.1 826.201C2628.1 792.801 2622.6 752.001 2622.6 703.601V413.601H2473.7V248.801H2624V74.8008H2819.1V248.801H3057.7V413.601H2820.4V723.401Z" fill="#FF4400"/>
</svg>
